<?xml version="1.0" standalone="no"?>
<!DOCTYPE svg PUBLIC "-//W3C//DTD SVG 20010904//EN"
 "http://www.w3.org/TR/2001/REC-SVG-20010904/DTD/svg10.dtd">
<svg version="1.0" xmlns="http://www.w3.org/2000/svg"
 width="1024.000000pt" height="1024.000000pt" viewBox="0 0 1024.000000 1024.000000"
 preserveAspectRatio="xMidYMid meet">
<metadata>
Created by potrace 1.14, written by Peter Selinger 2001-2017
</metadata>
<g transform="translate(0.000000,1024.000000) scale(0.100000,-0.100000)"
fill="#000000" stroke="none">
<path d="M4847 7559 c-270 -26 -596 -122 -862 -253 -272 -134 -462 -270 -678
-484 -349 -345 -580 -756 -685 -1223 -54 -235 -69 -436 -53 -679 23 -334 96
-597 256 -925 340 -699 1035 -1220 1840 -1380 154 -30 225 -39 225 -28 0 5
-53 93 -117 195 -65 103 -125 200 -134 215 -13 24 -30 33 -95 52 -287 85 -576
236 -809 424 -103 83 -303 290 -380 392 -293 391 -441 917 -391 1385 39 370
127 629 313 922 99 157 170 243 318 386 204 198 452 362 682 452 261 102 402
136 668 161 360 32 748 -47 1107 -227 214 -107 507 -334 666 -514 45 -52 86
-96 90 -98 4 -1 24 26 45 60 21 35 67 105 102 156 58 82 64 95 54 115 -20 38
-250 266 -354 350 -145 117 -288 208 -470 297 -184 90 -308 137 -467 179 -271
71 -591 97 -871 70z"/>
<path d="M7225 7160 c-65 -9 -104 -30 -143 -74 -69 -79 -62 -195 15 -256 24
-19 38 -21 124 -19 116 3 140 -9 171 -79 16 -35 19 -59 15 -102 -9 -98 -23
-120 -327 -500 -374 -468 -515 -637 -1065 -1276 -138 -160 -509 -577 -609
-684 -28 -30 -105 -115 -170 -187 -65 -73 -123 -133 -129 -133 -6 0 -94 83
-196 183 -102 101 -231 226 -286 278 -55 52 -158 151 -230 220 -71 69 -186
177 -256 240 -273 248 -508 459 -628 563 -69 60 -153 134 -186 164 -32 30 -61
49 -63 43 -4 -13 100 -171 254 -384 57 -78 143 -198 192 -267 48 -69 140 -197
203 -285 116 -160 153 -213 432 -615 140 -202 537 -796 677 -1013 51 -80 65
-96 76 -85 11 12 100 145 296 443 492 749 706 1064 1043 1533 251 349 305 419
884 1144 340 426 390 496 416 583 36 125 9 298 -62 392 -111 148 -251 202
-448 173z"/>
<path d="M5045 7125 c-22 -8 -55 -31 -72 -51 -57 -65 -56 -139 4 -205 54 -59
118 -69 191 -30 72 38 97 169 46 231 -47 56 -108 76 -169 55z"/>
<path d="M4131 6746 c-55 -30 -67 -106 -25 -155 22 -26 33 -31 69 -31 59 0 94
30 102 87 5 39 2 46 -30 78 -38 38 -74 45 -116 21z"/>
<path d="M5964 6750 c-58 -23 -74 -117 -28 -164 35 -35 101 -37 132 -3 48 51
48 111 0 152 -30 25 -66 31 -104 15z"/>
<path d="M4965 6277 c-144 -48 -243 -151 -279 -292 -65 -249 93 -495 345 -536
87 -14 160 -2 241 38 88 44 158 114 200 200 32 65 33 73 33 183 0 104 -3 120
-27 173 -38 80 -126 170 -207 210 -58 28 -75 32 -165 34 -64 2 -116 -2 -141
-10z"/>
<path d="M3490 6202 c-39 -40 -41 -88 -4 -131 21 -26 33 -31 67 -31 45 1 67
13 85 47 33 62 -4 130 -75 140 -37 5 -45 2 -73 -25z"/>
<path d="M6560 6202 c-41 -42 -42 -92 -1 -133 85 -84 216 36 138 126 -15 18
-36 28 -64 32 -37 5 -45 2 -73 -25z"/>
<path d="M3800 5778 c-46 -31 -66 -89 -50 -146 26 -98 128 -214 433 -495 331
-305 509 -493 817 -862 46 -55 87 -100 91 -100 5 0 59 61 121 135 278 334 475
545 765 821 337 319 437 444 438 546 0 46 -4 56 -33 85 -31 32 -35 33 -110 32
-95 0 -189 -28 -327 -94 -106 -52 -366 -210 -344 -210 3 0 45 9 94 19 105 23
325 54 332 48 2 -3 -20 -14 -49 -25 -201 -75 -424 -179 -568 -265 -92 -54
-138 -88 -242 -180 l-68 -59 -62 54 c-115 100 -280 206 -427 274 -185 87 -399
170 -485 189 -59 13 -15 15 100 5 65 -6 174 -22 241 -35 67 -14 126 -25 130
-25 20 0 -199 129 -322 190 -153 75 -259 109 -369 117 -63 4 -75 2 -106 -19z"/>
<path d="M7440 5618 c-46 -68 -119 -158 -162 -201 l-77 -79 7 -136 c4 -76 4
-191 1 -257 -24 -405 -211 -865 -482 -1182 -205 -240 -443 -432 -692 -560 -91
-46 -311 -134 -410 -163 -38 -11 -46 -21 -114 -133 -41 -67 -101 -163 -133
-213 -32 -50 -58 -96 -58 -103 0 -14 33 -11 204 20 225 41 438 115 677 234
234 117 431 259 626 452 239 237 385 437 518 708 126 255 201 487 241 745 25
156 25 546 1 703 -14 94 -55 287 -61 287 -1 0 -39 -55 -86 -122z"/>
<path d="M3113 5248 c-87 -18 -145 -128 -110 -209 30 -71 106 -118 170 -105
18 4 48 17 68 30 142 95 41 319 -128 284z"/>
<path d="M6930 5228 c-40 -27 -80 -98 -80 -143 0 -45 47 -112 96 -135 50 -25
77 -25 130 -1 103 47 123 180 39 261 -30 29 -43 34 -92 38 -48 3 -64 0 -93
-20z"/>
<path d="M3310 4420 c-30 -30 -27 -83 6 -109 25 -20 39 -21 249 -21 202 0 223
2 238 18 24 26 22 87 -3 112 -19 19 -33 20 -245 20 -212 0 -226 -1 -245 -20z"/>
<path d="M6352 4420 c-29 -27 -29 -83 -2 -110 19 -19 33 -20 253 -20 221 0
234 1 255 20 28 27 29 79 2 108 -20 21 -27 22 -254 22 -220 0 -233 -1 -254
-20z"/>
<path d="M3450 4059 c0 -28 16 -58 53 -96 l31 -33 246 0 c281 0 290 2 290 70
0 30 -6 43 -26 59 -26 20 -39 21 -310 21 -280 0 -284 0 -284 -21z"/>
<path d="M6132 4070 c-44 -18 -54 -87 -16 -124 13 -14 51 -16 255 -16 140 0
248 4 259 10 17 9 80 113 80 132 0 11 -549 9 -578 -2z"/>
<path d="M3740 3721 c0 -15 174 -148 285 -219 109 -70 282 -157 387 -196 56
-21 69 -22 78 -11 9 11 1 30 -38 87 -27 40 -79 123 -117 183 -37 61 -79 122
-93 138 l-26 27 -238 0 c-139 0 -238 -4 -238 -9z"/>
<path d="M5938 3718 c-15 -12 -253 -384 -265 -413 -22 -60 230 36 440 166 120
74 317 230 317 250 0 15 -474 11 -492 -3z"/>
</g>
</svg>
